<?xml version="1.0" encoding="UTF-8" standalone="no"?>
<!-- Created with Inkscape (http://www.inkscape.org/) -->

<svg
   xmlns:dc="http://purl.org/dc/elements/1.1/"
   xmlns:cc="http://creativecommons.org/ns#"
   xmlns:rdf="http://www.w3.org/1999/02/22-rdf-syntax-ns#"
   xmlns:svg="http://www.w3.org/2000/svg"
   xmlns="http://www.w3.org/2000/svg"
   xmlns:sodipodi="http://sodipodi.sourceforge.net/DTD/sodipodi-0.dtd"
   xmlns:inkscape="http://www.inkscape.org/namespaces/inkscape"
   width="210mm"
   height="297mm"
   viewBox="0 0 744.09448819 1052.3622047"
   id="svg2"
   version="1.1"
   inkscape:version="0.91 r13725"
   sodipodi:docname="clip.svg">
  <defs
     id="defs4" />
  <sodipodi:namedview
     id="base"
     pagecolor="#ffffff"
     bordercolor="#666666"
     borderopacity="1.0"
     inkscape:pageopacity="0.0"
     inkscape:pageshadow="2"
     inkscape:zoom="1.4"
     inkscape:cx="276.8456"
     inkscape:cy="513.65218"
     inkscape:document-units="px"
     inkscape:current-layer="layer1"
     showgrid="false"
     inkscape:window-width="1920"
     inkscape:window-height="1017"
     inkscape:window-x="1912"
     inkscape:window-y="-8"
     inkscape:window-maximized="1" />
  <metadata
     id="metadata7">
    <rdf:RDF>
      <cc:Work
         rdf:about="">
        <dc:format>image/svg+xml</dc:format>
        <dc:type
           rdf:resource="http://purl.org/dc/dcmitype/StillImage" />
        <dc:title></dc:title>
      </cc:Work>
    </rdf:RDF>
  </metadata>
  <g
     inkscape:label="Layer 1"
     inkscape:groupmode="layer"
     id="layer1">
    <path
       style="fill:#0000ff;fill-rule:evenodd;stroke:#000000;stroke-width:1px;stroke-linecap:butt;stroke-linejoin:miter;stroke-opacity:1"
       d="M 256.42773 453.07617 L 256.42773 630.21875 L 478.57227 630.21875 L 478.57227 453.07617 L 256.42773 453.07617 z M 283.57227 467.54102 A 15 15 0 0 1 298.57227 482.54102 A 15 15 0 0 1 283.57227 497.54102 A 15 15 0 0 1 268.57227 482.54102 A 15 15 0 0 1 283.57227 467.54102 z M 325.53516 467.54102 A 15 15 0 0 1 340.53516 482.54102 A 15 15 0 0 1 325.53516 497.54102 A 15 15 0 0 1 310.53516 482.54102 A 15 15 0 0 1 325.53516 467.54102 z M 367.5 467.54102 A 15 15 0 0 1 382.5 482.54102 A 15 15 0 0 1 367.5 497.54102 A 15 15 0 0 1 352.5 482.54102 A 15 15 0 0 1 367.5 467.54102 z M 409.46484 467.54102 A 15 15 0 0 1 424.46484 482.54102 A 15 15 0 0 1 409.46484 497.54102 A 15 15 0 0 1 394.46484 482.54102 A 15 15 0 0 1 409.46484 467.54102 z M 451.42773 467.54102 A 15 15 0 0 1 466.42773 482.54102 A 15 15 0 0 1 451.42773 497.54102 A 15 15 0 0 1 436.42773 482.54102 A 15 15 0 0 1 451.42773 467.54102 z M 283.57227 585.75586 A 15 15 0 0 1 298.57227 600.75586 A 15 15 0 0 1 283.57227 615.75586 A 15 15 0 0 1 268.57227 600.75586 A 15 15 0 0 1 283.57227 585.75586 z M 325.53516 585.75586 A 15 15 0 0 1 340.53516 600.75586 A 15 15 0 0 1 325.53516 615.75586 A 15 15 0 0 1 310.53516 600.75586 A 15 15 0 0 1 325.53516 585.75586 z M 367.5 585.75586 A 15 15 0 0 1 382.5 600.75586 A 15 15 0 0 1 367.5 615.75586 A 15 15 0 0 1 352.5 600.75586 A 15 15 0 0 1 367.5 585.75586 z M 409.46484 585.75586 A 15 15 0 0 1 424.46484 600.75586 A 15 15 0 0 1 409.46484 615.75586 A 15 15 0 0 1 394.46484 600.75586 A 15 15 0 0 1 409.46484 585.75586 z M 451.42773 585.75586 A 15 15 0 0 1 466.42773 600.75586 A 15 15 0 0 1 451.42773 615.75586 A 15 15 0 0 1 436.42773 600.75586 A 15 15 0 0 1 451.42773 585.75586 z "
       id="rect3340" />
  </g>
</svg>
