<?xml version="1.0" encoding="UTF-8" standalone="no"?>
<!-- Created with Inkscape (http://www.inkscape.org/) -->

<svg
   xmlns:dc="http://purl.org/dc/elements/1.1/"
   xmlns:cc="http://creativecommons.org/ns#"
   xmlns:rdf="http://www.w3.org/1999/02/22-rdf-syntax-ns#"
   xmlns:svg="http://www.w3.org/2000/svg"
   xmlns="http://www.w3.org/2000/svg"
   xmlns:sodipodi="http://sodipodi.sourceforge.net/DTD/sodipodi-0.dtd"
   xmlns:inkscape="http://www.inkscape.org/namespaces/inkscape"
   width="210mm"
   height="297mm"
   viewBox="0 0 744.09448819 1052.3622047"
   id="svg2"
   version="1.1"
   inkscape:version="0.91 r13725"
   sodipodi:docname="favourite_on.svg">
  <defs
     id="defs4" />
  <sodipodi:namedview
     id="base"
     pagecolor="#ffffff"
     bordercolor="#666666"
     borderopacity="1.0"
     inkscape:pageopacity="0.0"
     inkscape:pageshadow="2"
     inkscape:zoom="0.35"
     inkscape:cx="22.142857"
     inkscape:cy="520"
     inkscape:document-units="px"
     inkscape:current-layer="layer1"
     showgrid="false"
     inkscape:window-width="1920"
     inkscape:window-height="1017"
     inkscape:window-x="1912"
     inkscape:window-y="-8"
     inkscape:window-maximized="1" />
  <metadata
     id="metadata7">
    <rdf:RDF>
      <cc:Work
         rdf:about="">
        <dc:format>image/svg+xml</dc:format>
        <dc:type
           rdf:resource="http://purl.org/dc/dcmitype/StillImage" />
        <dc:title></dc:title>
      </cc:Work>
    </rdf:RDF>
  </metadata>
  <g
     inkscape:label="Layer 1"
     inkscape:groupmode="layer"
     id="layer1">
    <path
       style="fill:#d4aa00;fill-rule:evenodd;stroke:#000000;stroke-width:0.93765092px;stroke-linecap:butt;stroke-linejoin:miter;stroke-opacity:1"
       d="m 275.93964,335.26994 a 153.12132,136.67783 0 0 0 -153.12078,136.67734 153.12132,136.67783 0 0 0 22.19838,70.5551 l -0.37023,-0.002 3.39024,4.39996 a 153.12132,136.67783 0 0 0 3.47359,4.50897 l 105.45588,136.87496 112.3197,145.78524 115.38042,-144.48411 115.38041,-144.48237 -1.98685,-0.0121 a 153.12132,136.67783 0 0 0 23.82081,-73.1435 153.12132,136.67783 0 0 0 -153.12271,-136.67734 153.12132,136.67783 0 0 0 -96.44044,30.60249 153.12132,136.67783 0 0 0 -96.37842,-30.60249 z"
       id="path3336"
       inkscape:connector-curvature="0" />
  </g>
</svg>
