<?xml version="1.0" encoding="UTF-8" standalone="no"?>
<!-- Created with Inkscape (http://www.inkscape.org/) -->

<svg
   xmlns:dc="http://purl.org/dc/elements/1.1/"
   xmlns:cc="http://creativecommons.org/ns#"
   xmlns:rdf="http://www.w3.org/1999/02/22-rdf-syntax-ns#"
   xmlns:svg="http://www.w3.org/2000/svg"
   xmlns="http://www.w3.org/2000/svg"
   xmlns:sodipodi="http://sodipodi.sourceforge.net/DTD/sodipodi-0.dtd"
   xmlns:inkscape="http://www.inkscape.org/namespaces/inkscape"
   width="210mm"
   height="297mm"
   viewBox="0 0 744.09448819 1052.3622047"
   id="svg2"
   version="1.1"
   inkscape:version="0.91 r13725"
   sodipodi:docname="ic_menu_favourite.svg">
  <defs
     id="defs4" />
  <sodipodi:namedview
     id="base"
     pagecolor="#ffffff"
     bordercolor="#666666"
     borderopacity="1.0"
     inkscape:pageopacity="0.0"
     inkscape:pageshadow="2"
     inkscape:zoom="0.35"
     inkscape:cx="22.142857"
     inkscape:cy="520"
     inkscape:document-units="px"
     inkscape:current-layer="layer1"
     showgrid="false"
     inkscape:window-width="1920"
     inkscape:window-height="1017"
     inkscape:window-x="1912"
     inkscape:window-y="-8"
     inkscape:window-maximized="1" />
  <metadata
     id="metadata7">
    <rdf:RDF>
      <cc:Work
         rdf:about="">
        <dc:format>image/svg+xml</dc:format>
        <dc:type
           rdf:resource="http://purl.org/dc/dcmitype/StillImage" />
        <dc:title></dc:title>
      </cc:Work>
    </rdf:RDF>
  </metadata>
  <g
     inkscape:label="Layer 1"
     inkscape:groupmode="layer"
     id="layer1">
    <path
       style="fill:#808080;fill-rule:evenodd;stroke:#000000;stroke-width:0.91266251px;stroke-linecap:butt;stroke-linejoin:miter;stroke-opacity:1"
       d="m 277.12269,365.18234 a 154.31687,128.48677 0 0 0 -154.31632,128.48631 154.31687,128.48677 0 0 0 22.3717,66.32675 l -0.37312,-0.002 3.41671,4.13627 a 154.31687,128.48677 0 0 0 3.50071,4.23875 L 258.00163,697.04051 371.19832,834.08889 487.4796,698.26367 603.76089,562.44008 l -2.00236,-0.0114 a 154.31687,128.48677 0 0 0 24.0068,-68.76004 154.31687,128.48677 0 0 0 -154.31827,-128.48631 154.31687,128.48677 0 0 0 -97.19344,28.76849 154.31687,128.48677 0 0 0 -97.13093,-28.76849 z"
       id="path3336"
       inkscape:connector-curvature="0" />
  </g>
</svg>
