<?xml version="1.0" encoding="UTF-8" standalone="no"?>
<!-- Created with Inkscape (http://www.inkscape.org/) -->

<svg
   xmlns:dc="http://purl.org/dc/elements/1.1/"
   xmlns:cc="http://creativecommons.org/ns#"
   xmlns:rdf="http://www.w3.org/1999/02/22-rdf-syntax-ns#"
   xmlns:svg="http://www.w3.org/2000/svg"
   xmlns="http://www.w3.org/2000/svg"
   xmlns:sodipodi="http://sodipodi.sourceforge.net/DTD/sodipodi-0.dtd"
   xmlns:inkscape="http://www.inkscape.org/namespaces/inkscape"
   width="210mm"
   height="297mm"
   viewBox="0 0 744.09448819 1052.3622047"
   id="svg3414"
   version="1.1"
   inkscape:version="0.91 r13725"
   sodipodi:docname="review.svg">
  <defs
     id="defs3416" />
  <sodipodi:namedview
     id="base"
     pagecolor="#ffffff"
     bordercolor="#666666"
     borderopacity="1.0"
     inkscape:pageopacity="0.0"
     inkscape:pageshadow="2"
     inkscape:zoom="0.35"
     inkscape:cx="22.142857"
     inkscape:cy="520"
     inkscape:document-units="px"
     inkscape:current-layer="layer1"
     showgrid="false"
     inkscape:window-width="1920"
     inkscape:window-height="1017"
     inkscape:window-x="1912"
     inkscape:window-y="-8"
     inkscape:window-maximized="1" />
  <metadata
     id="metadata3419">
    <rdf:RDF>
      <cc:Work
         rdf:about="">
        <dc:format>image/svg+xml</dc:format>
        <dc:type
           rdf:resource="http://purl.org/dc/dcmitype/StillImage" />
        <dc:title></dc:title>
      </cc:Work>
    </rdf:RDF>
  </metadata>
  <g
     inkscape:label="Layer 1"
     inkscape:groupmode="layer"
     id="layer1">
    <circle
       style="fill:#ffff00"
       id="path3424"
       cx="355.71429"
       cy="502.36221"
       r="170" />
    <g
       id="g3427"
       transform="matrix(18.551021,0,0,17.462585,160.92856,319.00506)"
       style="fill:#0000ff">
      <g
         id="g3429"
         style="fill:#0000ff">
        <path
           id="path3431"
           d="m 13.154,6.75 c 0.775,0 1.403,0.631 1.403,1.407 0,0.776 -0.628,1.405 -1.403,1.405 -0.776,0 -1.405,-0.629 -1.405,-1.405 0,-0.776 0.629,-1.407 1.405,-1.407 z m -5.311,0 c 0.773,0 1.407,0.631 1.407,1.407 0,0.776 -0.634,1.405 -1.407,1.405 -0.777,0 -1.406,-0.629 -1.406,-1.405 0,-0.776 0.629,-1.407 1.406,-1.407 z m 7.901,5.903 c -0.999,1.865 -2.979,3.144 -5.245,3.144 -2.227,0 -4.253,-1.294 -5.267,-3.191 -0.102,-0.255 -0.027,-0.554 0.2,-0.728 0.273,-0.21 0.669,-0.16 0.875,0.115 1.002,1.204 2.503,1.942 4.191,1.942 1.69,0 3.206,-0.758 4.209,-1.963 0.113,-0.136 0.284,-0.222 0.477,-0.222 0.348,0 0.628,0.278 0.628,0.622 0,0.103 -0.026,0.196 -0.068,0.281 z"
           inkscape:connector-curvature="0"
           style="fill:#0000ff" />
      </g>
      <g
         id="g3433"
         style="fill:#0000ff">
        <path
           id="path3435"
           d="M 10.499,21 C 4.71,21 0,16.29 0,10.5 0,4.71 4.71,0 10.499,0 16.289,0 21,4.71 21,10.5 21,16.29 16.289,21 10.499,21 Z m 0,-19.996 c -5.236,0 -9.495,4.26 -9.495,9.496 0,5.235 4.259,9.496 9.495,9.496 5.236,0 9.497,-4.261 9.497,-9.496 0,-5.236 -4.261,-9.496 -9.497,-9.496 z"
           inkscape:connector-curvature="0"
           style="fill:#0000ff" />
      </g>
    </g>
  </g>
</svg>
